<?xml version="1.0" encoding="UTF-8"?>
<svg id="Livello_1" data-name="Livello 1" xmlns="http://www.w3.org/2000/svg" viewBox="0 0 332.43 359.01">
  <defs>
    <style>
      .cls-1 {
        fill: #f87171;
      }
    </style>
  </defs>
  <path class="cls-1" d="m78.33,199.48c0-.78,0-1.57,0-2.35.11-.71.29-1.42.32-2.13.24-5.26,1.26-10.35,3.29-15.08,7.63-17.8,20.32-27.56,38.24-28.09,14.68-.43,26.33,6.45,35.05,19.45.31.47.64.91,1.03,1.46.39-.55.65-.89.88-1.25,12.33-18.96,34.36-25.18,53.27-14.89,19.75,10.76,29.3,37,19.88,60.35-5.04,12.5-12.67,22.89-21.39,32.37-15.35,16.69-32.82,30.25-51.36,42.22-.96.62-1.67.59-2.61-.02-11.4-7.45-22.41-15.53-32.82-24.59-11.35-9.88-22.07-20.48-30.79-33.3-6.09-8.95-10.97-18.55-12.46-29.85-.19-1.43-.35-2.86-.52-4.3Z"/>
  <path class="cls-1" d="m283.75,0c.95,1.31.83,2.81.75,4.31-.26,5.27-.68,10.51-1.9,15.68-.98,4.16-2.93,7.78-5.88,10.8-5.99,6.13-10.77,13.06-14.17,20.92-.87,2-2.38,2.77-4.4,2.85-2.78.11-5.57.29-8.35.26-2.56-.02-4.61.92-6.25,2.8-.59.68-1.06.86-1.99.53-2.18-.79-4.39-1.54-6.65-1.99-3.93-.78-7.55.25-10.64,2.72-1.65,1.32-3.27,1.44-5.1.77-1.83-.67-3.66-1.35-5.47-2.07-5.78-2.3-11.35-1.88-16.5,1.59-2.33,1.57-4.54,3.39-6.48,5.41-4.13,4.29-4.36,9.7-3.64,15.18.33,2.48,1.01,4.96,1.87,7.32.56,1.56,1.63,2.96,2.62,4.33,1.1,1.52,2.74,2.08,4.59,2.07.71,0,1.43.07,2.12-.04,4.29-.67,8.11.53,11.44,3.14,1.78,1.39,3.29,1.12,4.99.06,2.31-1.45,4.45-3.31,7.27-3.69,1.49-.2,1.76-.88,1.62-2.21-.13-1.23-.09-2.49,0-3.73.05-.77.2-1.58.48-2.29.88-2.19,1.99-2.56,4.06-1.44.29.16.57.33.86.51,2.25,1.4,3.83,3.09,2.67,6.02-.16.41-.16.9-.22,1.35-.28,1.92-.21,3.68.98,5.45,1.14,1.7,1.79,3.73,2.7,5.59,1.29,2.65,3.11,4.83,5.91,5.96.72.29,1.65.39,2.41.23,4.91-1,7.74-4.13,8.4-9.08.15-1.14.39-2.27.61-3.48.36.06.61.07.82.15,4.67,1.86,9.51,1.73,14.37,1.14.16-.02.33-.04.49-.08,2.71-.58,4.81-.06,6.49,2.5,2.04,3.12,5.07,4.2,8.81,3.06,1.94-.59,3.96-.93,5.96-1.26.85-.14,1.05-.51,1.12-1.28.16-1.61.41-3.21.66-4.8.26-1.72,1.08-3.13,2.49-4.16.97-.71,1.34-1.59,1.11-2.8-.28-1.47-.62-2.96-.58-4.43.04-1.75.38-3.51.74-5.24.08-.4.76-.93,1.18-.95,3.04-.11,6.06-.02,8.93,1.24.36.16,1.07.02,1.38-.25,3.65-3.14,7.24-6.36,10.89-9.5.85-.74,1.88-1.28,3.08-2.08.02,3.76.51,7.18-1.24,10.33-1.33,2.39-1.86,4.95-1.99,7.64-.1,1.93-.12,1.99-2.05,2.23-4.06.5-7.75,1.9-10.85,4.59-1.69,1.47-3.27,3.08-4.8,4.71-1.35,1.43-1.26,3.28.35,4.42,1.22.86,2.69,1.42,4.12,1.94.7.26,1.01.56,1.06,1.28.28,3.59-1.08,5.52-4.58,6.49-2.67.74-5.44,1.27-7.99,2.33-7.46,3.11-12.21,12.44-10.4,20.08.71,3.01,2.31,5.58,4.32,7.9,1.96,2.26,4.04,4.42,5.9,6.76,1.04,1.31,1.93,2.81,2.54,4.36.68,1.73,0,2.97-1.71,3.72-1.17.52-2.42.87-3.62,1.31-4.24,1.54-4.62,2.96-2.74,7.63.42,1.03,1.3,1.56,2.48,1.57,1.04,0,2.07.13,3.11.16.92.03,1.46.48,1.66,1.38.73,3.27.74,6.31-1.57,9.17-2.66,3.29-3.42,7.4-4.12,11.47-.03.16-.04.33-.05.5-.13,1.69-.29,2.99-2.69,3.14-2.3.14-3.99,2.8-4.01,5.19-.02,1.32,0,2.63,0,4.03-.02,0-.23.07-.42.04-2.09-.35-2.8.55-3.23,2.59-.73,3.44-.02,6.76,1.62,9.87.19.36.64.68,1.03.81,1.28.4,1.74,1.26,1.71,2.53-.04,1.66.07,3.33-.03,4.98-.22,3.6,1.58,6.38,3.87,8.73,2.15,2.21,4.78,3.96,7.21,5.89.31.25.76.47,1.13.46,4.02-.11,8.1.12,12.04-.52,4.98-.81,8.75-3.86,11.32-8.24,3.25-5.51,4.86-11.6,6.16-17.79.44-2.09.42-2.13,1.38-2.83,1.08,1.02.85,2.44,1.1,3.69.77,3.82,1.31,7.69,2.28,11.46.54,2.13,1.55,4.2,2.68,6.11,1.43,2.41,1.19,4.85.65,7.34-.11.5-.75.99-1.26,1.28-2.42,1.37-4.89,2.65-7.32,3.99-3.58,1.98-6.88,4.37-9.79,7.25-3.35,3.32-7.11,6.08-11.03,8.71-2.24,1.51-4.15,3.56-6.03,5.53-1.49,1.57-2.08,3.67-2.35,5.8-.32,2.47-1.45,4.41-3.26,6.11-3.45,3.24-7.48,4.85-12.2,4.72-2.41-.06-4.22,1.05-5.98,2.61-4.15,3.68-5.62,8.48-6.59,13.71-.75,4.06.25,7.82.9,11.69.35,2.04.64,4.1.85,6.16.17,1.69-.06,2.08-1.66,2.56-4.29,1.29-8.63,2.41-12.9,3.75-9.03,2.83-16.79,7.52-22.28,15.47-3.99,5.77-6.29,12.2-7.5,19.07-.15.86-.3,1.72-.5,2.56-.31,1.3-.84,1.74-2.15,1.4-2.11-.56-4.19-1.29-6.26-2.01-1.41-.49-2.75-1.2-4.18-1.61-1.17-.33-2.44-.55-3.65-.48-1.39.08-2.33-.39-3.04-1.5-.45-.7-.92-1.39-1.29-2.13-3.28-6.64-8.89-10.59-15.49-13.38-1.79-.76-3.63-1.46-5.5-1.98-1.07-.3-2.32-.45-3.39-.22-2.46.53-4.92,1.19-7.29,2.07-4.37,1.61-7.29,4.79-9.16,9-.64,1.44-1.32,2.86-2.04,4.26-1.75,3.39-4.64,4.77-8.43,4.46-4.27-.36-8-2.01-11.61-4.16-2.92-1.74-5.94-3.33-8.84-5.11-2.94-1.81-5.86-1.54-8.78-.14-2.69,1.29-5.26,2.84-7.98,4.08-3.73,1.7-7.54,3.22-11.32,4.81-.23.1-.48.13-.72.19-3.38.84-4.48.09-4.89-3.4-.28-2.39-.47-4.79-.76-7.18-.3-2.54-1.29-4.77-3.08-6.66-6.59-6.95-14.6-11.54-23.65-14.46-8.71-2.8-17.69-4.12-26.75-5-3.1-.3-6.2-.6-9.29-1-1.94-.25-3.1-1.47-3.42-3.27-.29-1.62.17-2.45,1.72-2.95.83-.27,1.7-.41,2.52-.69,4.96-1.73,7.49-5.52,7.94-10.49.97-10.62-2.62-19.58-10.6-26.7-3.03-2.71-6.66-3.84-10.7-3.56-1.4.1-2.4-.38-3.4-1.36-6.1-6.02-11.4-12.64-15.52-20.17-1.37-2.5-2.31-5.13-2.14-8.07.06-1.04.39-1.26,1.41-1.29,3.73-.11,7.53.05,11.16-.64,9.02-1.71,14.67-7.4,17.14-16.14,2.31-8.19,1.62-16.36-.84-24.42-.62-2.02-1.51-3.95-2.18-5.95-.16-.47-.06-1.09.09-1.59.35-1.18.98-2.31,1.19-3.51.45-2.54-.4-4.76-2.5-6.24-2.23-1.57-4.65-2.87-6.98-4.32-.74-.46-1.48-.93-2.13-1.51-2.43-2.13-2.32-5.96.21-7.95,2.64-2.08,5.41-4.02,7.91-6.25,1.62-1.45,3.07-3.18,4.25-5.01,2.3-3.56,1.51-7.07-2.04-9.38-3.8-2.48-8.03-3.33-12.51-2.66-2.85.42-3.16.31-3.45-2.6-.28-2.84.63-5.51,1.55-8.12.45-1.28.41-2.25-.29-3.47-1.24-2.14-2.23-4.44-3.25-6.7-.22-.5-.26-1.15-.17-1.7.3-1.74,1.3-2.25,2.81-1.36,2.39,1.42,4.72,2.94,7.08,4.41,3.54,2.2,7.16,4.3,11.32,5,6.11,1.03,11.7-.07,16.44-4.44,3.73-3.44,6.41-7.6,8.79-12,.25-.46.55-.9.89-1.47,1.04.74,1.97,1.42,2.92,2.07,1.67,1.16,3.32,2.35,5.42,2.67,2.62.39,6.37-1.71,7.06-4.26.22-.81-.15-1.98-.65-2.73-.65-.98-1.65-1.74-2.56-2.52-1.24-1.07-1.72-2.33-1.51-3.98.25-1.97.35-3.97.43-5.96.12-3.41-1.3-6.21-3.68-8.55-.97-.95-2.01-1.9-3.17-2.6-3.98-2.38-4.62-6.36-5.11-10.4-.14-1.17.83-1.72,1.86-1.75,2.11-.05,4.27-.19,6.33.14,3.16.51,5.78-.24,7.62-2.78,1.87-2.57,3.58-5.29,5.07-8.09,3.59-6.72,7.42-13.26,12.51-18.99.83-.93,1.7-1.82,2.6-2.68.77-.74,1.6-.76,2.44-.03,1.7,1.48,2.87,3.2,2.9,5.55.02,1.24.14,2.49.21,3.73.26,4.3,2.38,6.96,6.62,7.9,2.05.45,4.19.55,6.3.76,2.55.25,3.71,1.34,4.04,3.88.42,3.3-.26,4.3-3.14,6.02-2.26,1.35-4.48,2.89-6.38,4.69-2.73,2.6-2.47,6,.55,8.27,1.84,1.38,3.89,2.6,6.03,3.41,3.4,1.29,6.91,2.31,10.44,3.2,2.27.57,4.42-.19,6.36-1.51,3.76-2.55,6.17-6.23,8.34-10.08,3.32-5.88,5.73-12.16,7.52-18.65,1.17-4.26,3.66-7.09,7.88-8.35,2.32-.69,4.72-.7,7.04-.17,4.04.93,8.03,2.06,12.03,3.13,2.09.56,4.19.69,6.26-.02,3.57-1.21,7.19-2.31,10.65-3.78,4.52-1.92,7.95-5.2,10.52-9.4,2.04-3.33,4.01-6.7,6.28-9.87,1.44-2.01,3.31-3.72,5.08-5.47,1.4-1.39,2.14-1.42,3.89-.44.87.49,1.75.97,2.56,1.54,5.19,3.67,10.63,3.78,16.29,1.24,4.53-2.04,8.46-4.98,12.03-8.35,1.8-1.7,3.42-1.99,5.66-1.12,2.19.85,4.49,1.56,6.8,1.91,5.27.8,9.64-1.46,13.67-4.54,3.42-2.62,6.27-5.82,8.93-9.18,1.23-1.55,2.45-3.12,3.67-4.69.42,0,.83,0,1.25,0Zm-20.16,214.88c.14-7.85-1.31-17.64-3.53-27.34-2.91-12.7-7.77-24.58-15.07-35.4-9.83-14.55-22.86-25.45-38.58-33.17-12.94-6.36-26.66-10.21-40.98-11.65-6.1-.61-12.29-.73-18.42-.47-7.03.3-13.87,2.02-20.56,4.22-18.04,5.94-33.73,15.67-47.06,29.2-7.14,7.25-13.02,15.42-17.62,24.48-6.49,12.77-9.78,26.37-10.48,40.66-.49,10.08-.14,20.1,1.83,30.01,3.45,17.32,11.18,32.56,22.73,45.87,13.97,16.09,31.3,27.08,51.58,33.45,7.71,2.42,15.61,3.99,23.7,4.34,9.52.42,18.91-.65,28.18-2.83,8.47-1.99,16.63-4.85,24.48-8.63,16.36-7.88,30.17-18.9,40.99-33.5,12.56-16.94,18.95-35.98,18.82-59.27Z"/>
</svg>